<?xml version="1.0" encoding="UTF-8"?> <svg xmlns="http://www.w3.org/2000/svg" xmlns:xlink="http://www.w3.org/1999/xlink" id="Logo_Horizontal" data-name="Logo Horizontal" width="180.405" height="127.79" viewBox="0 0 180.405 127.79"><defs><clipPath id="clip-path"><rect id="Rectangle_3" data-name="Rectangle 3" width="180.405" height="127.79" fill="none"></rect></clipPath></defs><g id="Group_2" data-name="Group 2" clip-path="url(#clip-path)"><path id="Path_26" data-name="Path 26" d="M10.365,84.369l.4.131q3.187,0,3.188.652v.781l-.132.131.132.13v1.955l-.132.13.132.131V89.45h-.266v.131l-.931-.131-5.714.131h-1.2l-.133.13H5.581l-.4-.39v.129l.266.261-.4.783.133.131v2.735l-.133.13.266,2.476-.132,1.955.132,4.17v1.042l-.132.131v.13h.132l.133-.13.266.521h.932l.264.261.133-.13h3.323l.133.13a12.648,12.648,0,0,1,3.188-.261v.261l.133-.13h.132a1.486,1.486,0,0,1,.4.911v1.955l-.133.13.133.131v.261l-.133.131v.13l.133.131h.133q0,1.3-1.2,1.3v-.13l-.133.13-2.922-.13H8.106q-2.789,0-2.791.913l-.132,1.172.132,4.561-.132,11.726.132,1.433c0,1.131-.355,1.693-1.062,1.693l-.4.131-1.86-.131H1.2a.9.9,0,0,1-.93-.781l-.132-4.952H0L.266,123.2l-.132-2.476.132-4.04-.132-7.427v-.65l.132-6.385-.132-.39.132-1.041L.133,97.66H.266l-.132-.131v-1.3L.266,96.1l-.132-.131v-.13q.1-2.215.266-2.216l-.133-.131v-1.3l.133-.13L.133,90.1l.132-.131-.132-.911V87.626Q.133,84.5.8,84.5l3.987.131H8.772q1.593,0,1.594-.262M.4,91.146H.931v-.131H.4Zm.929,33.746h.133l.133.13h.132v-.261H1.461Zm.666-33.877v.131l.4.131.133-.131v-.131H2.392v.131l-.132-.131Zm0,1.433v.131l.132.131h.266v-.131ZM2.26,91.4l-.133.391h.266V91.4Zm1.594-1.433-.132.131v.131l.4-.131v-.131Zm.4.131h.133v-.521H4.252Zm0,1.564h.133v-.52H4.252Zm.133.782v.131h.53v-.261H4.785Zm.53-2.867-.131.13v.131l.131.13v-.13l.133-.131v-.13Zm-.131,1.7v.259l.131.131h.133l-.133-.39ZM5.98,107.3v.131l.133.13h.533v-.13Zm.93,0h.133v-.521H6.909Zm.665,0v.131l.133.13h.532v-.13Z" transform="translate(0 -6.123)" fill="#e2423b"></path><path id="Path_27" data-name="Path 27" d="M27.881,84.193q1.064,0,1.062,3.128l.532,4.3-.133.131q.433,0,1.461,10.555l2.26,18.632q.433,0,.8,6.907c.177,0,.266.519.266,1.563a.873.873,0,0,1-.931.651H31.468q-2.525,0-2.525-.912l-.8-8.47h.132l-.132-.13v-1.172q0-1.3-1.064-1.3H23.627c-.62,0-.929.607-.929,1.824a94.37,94.37,0,0,1-1.064,9.772,1.018,1.018,0,0,1-.8.389h-3.19a.871.871,0,0,1-.929-.651l.8-6.646q.365-3.646.665-3.648l-.133-.131v-.13q.5-4.82.8-4.821l-.133-.13v-.262l.133-.13-.133-.131q.962-9.642,1.328-9.642l-.132-.131v-.391c0-1.215.132-1.824.4-1.824l-.133-.13v-.131q.233-2.863.665-2.866l-.132-.652,1.328-12.247q.233-1.043,1.062-1.043h1.6Zm-8.638,28.8v.131l.132.131h.267v-.131Zm.4-.521-.133.13v.131h.4Zm1.064-4.559h.133v-.521h-.133Zm1.062-.522v.522l.665-.131v-.13q-.532,0-.533-.262Zm.132-9.12h.532v-.131H21.9Zm0,9.772v.131l.133.131h.133l.132-.131v-.131h-.132l-.133.131Zm.133-15.766.133.391H22.3V92.4l-.132-.131Zm.532,1.955v.13l.8.131v-.131l-.132-.13Zm2.79,3.648q-.467,0-.93,5.6h.133a23.045,23.045,0,0,0-.533,5.212h-.132l-.133-.129h-.133v.129l.267.261v.13l-.133.131.133.131c-.067.521-.155.782-.267.782l.133.131v.131l-.133,2.083a1.042,1.042,0,0,0,1.064.783h.93l.132.13.133-.13h.266l.133.13h.133c.441-.348.663-.652.663-.913l-.265-3.518.131-.131v-.13l-.131-.39h.131l-.53-3.39v-1.563l.132-.131v-.13H26.42l-.133.13q0-1.171-.266-1.172l.132-.13q-.431-3.976-.665-4.04Zm-1.595,8.6-.133.13v.26h.133l.133-.39Zm.931-10.555h.133V95.4h-.133Zm2.126-8.339-.132.391.4-.131Zm.93,12.378.133.391h.132v-.261l-.132-.131Zm.665-10.814-.133.39.4-.13Zm.8,11.986v.131l.8.13-.133-.13v-.131l.133-.131Zm.132,11.076h.532v-.131h-.532Zm.4.131v.389l.133.131h.133l-.133-.52Zm.533-10.816h.133v-.65h-.133Z" transform="translate(-0.906 -6.11)" fill="#d36e56"></path><path id="Path_28" data-name="Path 28" d="M40.459,84.193v.131l.132-.131h.93l-.133.131v.131h.133l.132-.131v-.131l1.328.262.666-.262v.131l.132-.131h2.126q4.384,1.273,4.386,2.216a9.259,9.259,0,0,1,2.523,5.473l.4,3.258-.133,1.172q0,4.95-.663,5.863a10.3,10.3,0,0,1-2.26,3.778v.131q0,.359,1.728,1.954l.665,1.042-.4.131v.131l.4.13v-.261h.131a32.218,32.218,0,0,1,1.2,5.994l-.133,1.433.133,1.565q0,4.82-1.2,6.644a7.844,7.844,0,0,1-3.321,4.3,10.988,10.988,0,0,1-3.455.912H44.712l-.133-.131-.133.131h-1.2l-1.994.13v-.13l-.132.13h-.267v-.261l-.131.131h-.932l.133-.131V129.8l-.133.131h-.665c-.53,0-.8-.39-.8-1.172v-.521l.133-.39-.133-.783v-.521l.133-.131-.266-1.172h.266v-.13H38.2v-.391l.132.13h.133l-.4-3.518h-.132v-.13q.4,0,.4-.261v-.262l-.132-6.644.132-1.693-.132-1.565.132-7.166v-1.3l-.132-1.043.132-.912-.132-4.17.132-2.737L38.2,92.4l.132-1.433L38.2,84.976q0-.782,2.26-.783m-1.994,42.738v.262l.4-.131.131.131h.266v-.131l-.663-.131Zm.266.522v.391h.133l.131-.391Zm0,.52v.261c.442-.108.664-.237.664-.39Zm1.2-.39-.133.13v.26h.133l.133-.39Zm.929,1.563a.348.348,0,0,1-.4.391l-.133.131v.128l.663-.128v-.522Zm-.4-10.555v.131h.4l.133-.131v-.13Zm.132.391-.132.131v.13h.4Zm-.132,9.512v.131l.4.13v-.391Zm.663-24.364v.13l.132.131h.267v-.131Zm.132-17.461v.262l.133.13h.133l-.133-.391Zm.267,8.6-.133.13v.131l.4-.131v-.13Zm1.46-1.042-.132.13v.131l.4-.131v-.13Zm0,10.945-.132.13v.131l.4-.131v-.13Zm.4,5.472v3H42.85v.131h.532l-.132,1.3.132,3.388v5.213a.93.93,0,0,0,1.064,1.042h1.86A2.86,2.86,0,0,0,48.3,121.85v-.391l-.133-.131v-.13h.266q.2-4.038.4-4.04l-.131-.13v-1.172l.131-.131-.131-.13v-.652q0-4.527-2.791-5.211H44.313a.814.814,0,0,0-.932.911m0-20.456v4.431l-.132.13.132.131v.131l-.132,1.823.132,5.473a1.2,1.2,0,0,0,1.2.781h.4q2.029,0,2.791-2.474l.266-5.6-.132-.653.132-.13-.266-.261v-.131l.133.131h.132V93.7q-.5,0-.665-3.256a2.9,2.9,0,0,0-2.259-1.3h-.664a.931.931,0,0,0-1.064,1.041m1.331,34.92v.13h.131l.4-.13v-.131h-.132Zm.663.13v.391h.266l-.133-.391Zm1.461-39.089v.13l.4.131v-.131l-.133-.13Zm0,41.955h.532v-.131h-.532Zm.8-4.039-.266.391v.13H47.5q0-.391.665-.391v-.13Zm.133.391v.13l.266.261v-.13ZM47.9,88.493v.131l.4.13h.132v-.13l-.4-.131Zm.532-1.172-.132.651.132-.131h.4l.133.131h.132v-.131a.463.463,0,0,1-.53-.52Zm0,2.084h.133v-.52h-.133Zm.93,4.3.132.652h.133l.133-.652Zm.665-5.863h.663v-.131h-.663Z" transform="translate(-2.055 -6.11)" fill="#d0a729"></path><path id="Path_29" data-name="Path 29" d="M79.64,84.193h1.328l5.714.131.8-.131q1.593.131,1.595.522v2.345l-.133.52.133.39h-.133l.133.131v.652q0,.359-1.064.522v-.391h-.133v.391h-.4v-.262h-.133v.262H81.234a1.114,1.114,0,0,0-1.064.65v.913l-.133,10.034q0,2.606.931,2.6h.267l3.055.131,3.057-.131v.391h.133v-.391q1.593,0,1.595,1.043v.131l-.133.129v.13h.266v.391q0,3.258-.665,3.259h-.929l-.133-.131-.133.131h-.266l-.132-.131-.4.131-1.994.128L81.5,108.56h-.4l-.133-.131h-.132l-.267.259-.4.522v8.079l-.267.261.133.131v.391h-.264v.13h.264v.26l-.133.13.133.131v.261l-.133.131a7,7,0,0,1,.267,2.345v.391l-.133,2.085q0,1.171,3.19,1.172l1.86-.131q2.259.1,2.259.261l.133-.13h.531q1.064,0,1.064,1.823v1.3q-.167,1.825-1.331,1.823H75.786a.7.7,0,0,1-.8-.78v-2.216h.266l.133.131h.133v-.131l-.533-.131v-.652l.266-.39h-.132l-.133.129v-.52h.266l-.132-.13v-2.085l-.133-.522.133-.521v-.39l-.133-2.216.133.131h.132l-.132-.131v-.391h.266v-.261l-.133.131h-.132l-.133-.131.266-.781-.266-1.435.133-2.215-.133-2.736h.133l.132.131h.133v-.131l-.266-.261v-1.042l.132-.13-.132-.131v-1.3l.132-.131v-.131l-.266-.259.133-.131-.133-.13v-.391h.533v-.131h-.533v-.391h.4v-.13h-.4v-1.693l.133-.131-.133-.131V98.788l.133.13h.132v-.261h-.266v-1.3h.266v-.131h-.266l.133-.519-.133-6.385V85.626a1.268,1.268,0,0,1,.665-1.3h3.188l-.132.131v.13h.132q.133-.391.8-.391m-4.119,27.494h.531v-.131h-.531Zm.132.261-.132.131v.13h.132v-.13l.133.13h.264v-.13Zm-.132,4.17v.131l.132.128h.266v-.128Zm.266-5.344-.133.391h.4l-.131-.391Zm.4,5.994v.131l.4.261h.4v-.13Zm.532,10.164v.131l.4.131v-.131l-.133-.131Zm.665-2.867-.132.13v.131l.532-.131v-.13Zm-.132.521v.131l.663.13v-.391Zm.132,2.345.267.522h.132v-.131l-.132-.391Zm.267-16.808.132.131h.131v-.391Zm.264,16.808v.262l.4-.131.132.131h.267v-.131l-.665-.131Zm2.658-22.8v.131l.133.131h.266v-.131Zm.133-17.46v.261l.133.131h.132l-.132-.391Zm5.58,1.172h.532v-.131h-.532Zm.133.391v.261l.4-.131v-.13Zm.931.261v.131l.4.13h.133v-.13l-.4-.131Zm.133,16.287h.133l.131.13h.133v-.13l-.133-.129h-.131Zm.4-17.33-.133.521.133-.13h.4l.132.13h.133v-.13q-.532-.065-.532-.391Z" transform="translate(-4.061 -6.11)" fill="#5597b2"></path><path id="Path_30" data-name="Path 30" d="M97.2,84.061q2,.1,2,.393l-.134.132H99.2l.134-.132.132.524-.132,3.929.132,4.714-.132,2.094.132,1.046-.132,3.536v1.964a1.052,1.052,0,0,0,1.2,1.178h3.606q1.067,0,1.068-1.178v-2.75l-.134-2.226h.134l-.134-.132.134-1.569V94.8l-.134-1.572h.268l-.133-.132v-.131l-.134-6.286.134-.522-.134-.393c.089-.961.268-1.439.534-1.439l.134.13v-.262h.267l.134.132.131-.132h3.071l.67.132-.269.392h.134l.266-.262v2.488l-.131.13a9.116,9.116,0,0,1,.266,2.75v4.191l-.134,2.356.134,1.441-.134,7.594q0,.918.269.917l-.134,2.619v20.032q0,1.05-.935,1.049l-3.337.13c-.535-.086-.8-.218-.8-.393v-.13l-.134-1.31.134-1.833v-1.833l-.134-2.228.134-1.964v-.522l-.134-1.049.134-.393-.134-4.844.134-4.321a1.293,1.293,0,0,0-1.2-.917h-.535q-4.005,0-4.006.786l-.132.525.132,3.01-.132,3.8.132,6.154-.132,2.618.132,1.31-.132,1.308.132.917c-.156.786-.333,1.179-.533,1.179l-3.872.13c-.4,0-.713-.74-.935-2.226l.267-3.4-.132-2.226.132-4.714-.132-2.75.132-1.439-.267-5.5.267-5.369-.132-6.549V94.668L94.4,92.31l-.132-1.178.132-1.964-.132-2.619q0-2.357.8-2.357Zm-2.4,38.365v.132l.4.132v-.263Zm1.471-26.841.132.39h.134v-.39Zm.132-3.143v.393l.269-.263v-.13Zm.534,1.7-.134.525h.269v-.525Zm.668,17.415-.132.132v.654H97.6l.133-.786Zm.4.917v.132h.267l.4-.132v-.132h-.131Zm7.345-25.926v.13h.267l.134-.13v-.131Zm1.335-2.1-.132.132v.131l.132.13h.134v-.13l-.134-.131.134-.132Zm2.939,26.842-.134.132v.13h.134l.132-.13.134.13v-.13l-.134-.132Zm0-24.354V87.2l.132.132h.134l-.134-.393Z" transform="translate(-5.098 -6.101)" fill="#6a86bf"></path><path id="Path_31" data-name="Path 31" d="M124.063,97.39a7.556,7.556,0,0,1,4.007,1.239,6.722,6.722,0,0,1,2.4,3.051l.667,1.715v.668h-.4v.1h.4V105.3l.134.095v.1h-.134a1.789,1.789,0,0,1,.269,1.048v.191l-.134.095.134.1v1.62l.132.1a2.376,2.376,0,0,0-.267,1.24v.667c.022.445.112.668.267.668l-.132.095v.858l-.134,3.052.134,1.238-.134,1.43c.066.382.156.572.267.572q-.233,2-.4,2l.134.1v.095l-.134.1.134.477v1.43l.134.1-.134.287.267,1.334h-.267q-.4,3.433-1.2,3.909a3.313,3.313,0,0,1-1.6,1.621h-.132v-.478H128.2l-.134.572h.134l.133-.095.132.095v.1c-.512,0-.777.222-.8.668l-.132.095h-.268v-.191h-.132v.382c-.269,0-.4-.16-.4-.478H126.6v.572l.134.1a22.108,22.108,0,0,1-3.339.572h-.267a8.907,8.907,0,0,1-4.541-1.24,11.53,11.53,0,0,1-2.937-3.623l-.535-2.288q.1-.833.4-.859l-.4-1.334v-.19h.134l-.134-1.43.134-3.147-.134-1.716.134-1.144-.134-.858.134-1.621-.134-.953.134-2.1-.134-3.528-.266-.477.8-1.908-.134-.094c.155-.764.335-1.144.534-1.144l.132.1h.269v-.1c-.269,0-.4-.064-.4-.19a2.13,2.13,0,0,1,.934-1.527h.134v-.1h-.267q.8-1.191,1.335-1.335l.8-.762.4.095h.134v-.095h-.269v-.1l.935-.286.134.1q0-.263.8-.382v.1a10,10,0,0,1,2.937-.287m-7.61,3.813-.134.478.134-.1h.4l.132.1h.134v-.1c-.356,0-.534-.128-.534-.382Zm0,1.527h.132v-.382h-.132Zm1.6-1.144h.667v-.1h-.667Zm1.068-2.956v.1l.533.1v-.1l-.131-.1Zm1.6-.762-.133.1v.095l.8-.095v-.1Zm.267.571-.267.191v.1h.4v-.287Zm3.74,32.987h.667v-.095h-.667Zm.267-1.238v.095l.4.1v-.1l-.134-.095Zm2.8.19h.267l-.132.286H127.8Z" transform="translate(-6.22 -7.068)" fill="#a8a94c"></path><path id="Path_32" data-name="Path 32" d="M138.965,83.709h.134q2,0,2,.786l.134,2.88v.655l-.134,3.406.134,1.7-.134,2.75.134.525L141.1,98.5v1.835l.134,3.01-.134,1.7.134,15.581v.524q0,4.192,2.27,4.19l.534.132h.267q1.839,0,2.138-3.275l.134-6.153v-2.226l-.134-2.357.134-.655-.134-3.013.134-6.547-.134-2.357.134-5.368v-1.7l-.134-5.763q0-2.226.8-2.226l1.2-.13q3.206,0,3.2.655v4.057l-.133.132.133.132v6.153l-.133.132.133.13v.917l-.133.393.133.654v2.357l-.133.132.133.13v2.228l-.133,2.75.133,2.88v1.833l-.133.132.133.132v9.819q0,6.776-3.74,9.69l-.131-.13h-.134v.13l.134.132a8.069,8.069,0,0,1-4.141,1.178H143.5l-.934-.132.132-.129v-.132l-.132.132H141.9l.134-.132v-.132H141.9l-.132.132h-.134l-2.136-1.179.132-.132v-.262H139.5v.262l-.935-.915.134-.132h-.134l-.134.132a8.319,8.319,0,0,1-1.869-5.368q-.4,0-.4-4.453v-4.452l-.134-.131.269-.786h.266v-.132h-.4v-.392h.266v-.262l-.131.132h-.134l-.134-.132.134-.132v-1.178h.4l-.266-.262-.134.132v-7.857l-.134-.132.134-.13V95.231l-.134-2.488.269-6.286-.134-1.962q0-.786,2.8-.786m-2.539,30.769-.131.132v.132l.4-.132v-.132Zm.4-7.593v.261h.534v-.132Zm.134.654v.132h.267l.133-.132v-.132Zm5.609,20.427v.13l.667.132V128.1l-.134-.13Zm.8,1.962v.132h.267l.134-.132.132.132v-.132l-.132-.13Zm3.737-1.309-.131.393h.267v-.393Zm2.805-41.639v.132l.8.129v-.129l-.131-.132Zm.269,23.046-.134.13v.132l.4-.132v-.13Zm.132-21.475v.132l.4.13v-.13l-.131-.132Zm.4,23.569h.667v-.13h-.667Zm.4-2.88-.134.393h.134l.134-.132v-.262Z" transform="translate(-7.367 -6.075)" fill="#674c95"></path><path id="Path_33" data-name="Path 33" d="M162.653,83q4.673,0,6.677,3.275v.129h-.267v.263l.4-.263a19.885,19.885,0,0,1,1.6,7.727q-.2.785-2.4.786,0,.262-2.269.262l-.4-.524-.134-4.19-.667-1.7-.134.132h-.134q0-.327-1.2-.654l-.131.129h-.269l-.132-.129h-.134l-.267.261-.133-.132a3.86,3.86,0,0,0-1.336,2.621v1.178l-.132,2.358a12.242,12.242,0,0,0,1.335,4.844,98.548,98.548,0,0,1,6.143,8.249l1.6,3.142-.134.13v.263l.134-.132h.133l.4,1.7-.134.13q.633,0,.934,4.846l-.132.915.132.525a21.852,21.852,0,0,1-1.2,6.939l-.268.263H170l.132.13a7.04,7.04,0,0,1-2,2.488l-.4-.263v.132l.269.262-.8.392-.134-.129v.129l.134.132-1.07.393-.132-.132v.132l.132.132-1.335.13v-.13l-.134.13h-1.869a5.978,5.978,0,0,1-4.272-2.226l.132-.13q-.633,0-1.6-2.488l.134-.132h-.134l-.131.132a19.115,19.115,0,0,1-.8-6.547v-1.049q0-1.438,3.606-1.44h.934q.434,0,.534,7.072.867,1.966,2.4,1.964h.266a2.186,2.186,0,0,0,2.138-1.833l.4-1.572v-3.8a12.01,12.01,0,0,0-2.939-7.725l.134-.13h-.134l-.134.13-.267-.523.134-.132c-.356,0-.534-.087-.534-.261l.133-.132q-.367,0-1.871-2.1l-.131-.13v-.132h.266v-.132h-.266l-.134.132a9.4,9.4,0,0,0-1.869-2.486l-1.738-3.8.134-.393h-.134a15.053,15.053,0,0,1-.8-3.665l.134-.131a5.48,5.48,0,0,1-.267-2.094v-.917q.234-6.548,1.6-6.547v-.132h-.269V86.8a6.259,6.259,0,0,1,2.538-2.748l.134.13q0-.392,2.537-1.179m-6.142,9.428-.134.132v.13l.4-.13V92.43Zm0,30.9v.132l.132.132h.269v-.132ZM156.778,94v.132h.4V93.87Zm3.2,6.94-.134.654h.269v-.654Zm.668,4.976v.132h.534v-.262Zm.266-7.987.134.393h.134V97.93Zm.134-12.7v.262l.134.13h.132l-.132-.392Zm.4,14.011.134.392h.132v-.392Zm.8,9.167v.13l.4.132v-.132l-.134-.13Zm.267.654v.132h.268l.132-.132v-.132Zm.534.132v.262l.134.132h.132l-.132-.393Zm.8-21.736v.13h.8v-.262Zm0,20.951v.13l.4.132v-.132l-.134-.13Zm.4.522-.134.132v.132l.4-.132v-.132Zm2.4-22.651h.134v-.656h-.134Zm0,2.879v.263l.134.13h.132l-.132-.393Zm1.469,37.319h.534v-.13h-.534Z" transform="translate(-8.455 -6.024)" fill="#8a3282"></path><path id="Path_34" data-name="Path 34" d="M180.3,83.71h1.336l5.741.129.8-.129c1.07.085,1.6.261,1.6.522v2.357l-.132.525.132.392h-.132l.132.13v.657q0,.36-1.068.522v-.393h-.134v.393h-.4v-.262h-.131v.262H181.9a1.118,1.118,0,0,0-1.068.656v.915l-.134,10.083q0,2.62.935,2.62h.267l3.071.13,3.073-.13v.392h.131v-.392q1.6,0,1.6,1.047v.132l-.132.129v.132h.267v.393q0,3.272-.668,3.272h-.935l-.134-.129-.131.129h-.269l-.132-.129-.4.129-2,.132-3.072-.132h-.4l-.132-.129H181.5l-.265.261-.4.525v8.118l-.269.262.134.132v.392h-.266v.13h.266v.263l-.134.13.134.131v.262l-.134.132a7.009,7.009,0,0,1,.269,2.358v.392l-.134,2.1q0,1.178,3.206,1.179l1.868-.132q2.27.1,2.272.261l.131-.129h.535q1.067,0,1.068,1.833v1.31q-.165,1.834-1.335,1.833H176.429a.7.7,0,0,1-.8-.786v-2.225h.267l.133.129h.134v-.129l-.534-.132V126l.267-.392h-.132l-.134.13v-.523h.267l-.132-.132v-2.1l-.134-.523.134-.524v-.393l-.134-2.225.134.129h.132l-.132-.129v-.393h.266v-.263l-.133.132h-.132l-.134-.132.267-.786-.267-1.439.134-2.226-.134-2.75h.134l.132.132h.133v-.132l-.266-.262v-1.049l.132-.13-.132-.131v-1.31l.132-.13v-.132l-.267-.261.134-.132-.134-.132v-.393h.534v-.13h-.534v-.392h.4v-.132h-.4v-1.7l.134-.132-.134-.132V98.374l.134.13h.132v-.262h-.267v-1.31h.267V96.8h-.267l.134-.525-.134-6.415V85.149a1.274,1.274,0,0,1,.667-1.31H179.5l-.134.132V84.1h.134c.089-.263.356-.392.8-.392m-4.139,27.626h.533v-.13h-.533Zm.132.263-.132.13v.131h.132v-.131l.134.131h.267v-.131Zm-.132,4.189v.132l.132.13h.269v-.13Zm.267-5.368-.134.393h.4l-.132-.393Zm.4,6.023v.131l.4.262h.4v-.13Zm.535,10.214v.132l.4.129v-.129l-.134-.132Zm.667-2.882-.134.132v.131l.535-.131v-.132Zm-.134.524v.132l.67.13v-.393Zm.134,2.358.267.524h.134v-.132l-.134-.392Zm.267-16.892.134.132h.134V109.5Zm.269,16.892v.261l.4-.129.132.129h.267v-.129l-.668-.132Zm2.671-22.915v.132l.132.13h.267v-.13ZM181.37,86.2v.262l.132.131h.134L181.5,86.2Zm5.608,1.179h.534v-.132h-.534Zm.134.392v.262l.4-.13v-.132Zm.935.262v.132l.4.132h.132v-.132l-.4-.132Zm.131,16.367h.134l.134.132h.132V104.4l-.132-.129h-.134Zm.4-17.414-.132.524.132-.131h.4l.133.131h.134v-.131c-.358-.045-.534-.174-.534-.393Z" transform="translate(-9.512 -6.075)" fill="#e04889"></path><path id="Path_35" data-name="Path 35" d="M62.025.2A34.512,34.512,0,0,1,75.854,5.023c14.006,8.142,18.518,22.358,18.9,23.691,3.589,12.4,2.71,31.841-11.272,41.3-9.46,6.4-43.614,6.748-54.371-5.109-11.567-12.748-5.931-31.011-3.889-37.628,1.7-5.506,4.922-15.971,15.4-22.4A34.578,34.578,0,0,1,62.025.2" transform="translate(-1.194 0)" fill="#e04889"></path><path id="Path_36" data-name="Path 36" d="M123.471,133.821a.45.45,0,0,1,.435.326,2.869,2.869,0,0,1-.267,2.576,2.272,2.272,0,0,1-.952.723.682.682,0,0,1-.95-.591l0-.073h0a1.734,1.734,0,0,0,1.183-.588,2.07,2.07,0,0,0,.122-1.806.448.448,0,0,1,.433-.569" transform="translate(-6.593 -9.712)" fill="#4e2a0f"></path><path id="Path_37" data-name="Path 37" d="M114.355,125.922c0-.256.007-.519.021-.788a1.329,1.329,0,0,1,.645-1.018,1.178,1.178,0,0,1,.223-.1L115.3,124a30.763,30.763,0,0,1,15.872,0,1.319,1.319,0,0,1,.919,1.135c.013.269.021.532.021.788,0,2.969-.986,4.829-2.593,6.059a12.054,12.054,0,0,1-12.565,0,6.375,6.375,0,0,1-2.442-4.174c-.009-.053-.019-.107-.026-.16a10.978,10.978,0,0,1-.125-1.724" transform="translate(-6.194 -8.924)" fill="#a46a37"></path><path id="Path_38" data-name="Path 38" d="M130.367,131.824a1.131,1.131,0,0,0,.179-.817.589.589,0,0,0-.6-.428,1.592,1.592,0,0,0-1.35.81l.3.082c.008-.27.2-.483.067-.757a.663.663,0,0,0-.706-.285,1.67,1.67,0,0,0-1.336.832.163.163,0,0,0,.283.161,1.334,1.334,0,0,1,.96-.663c.17-.026.511-.066.525.173a.625.625,0,0,1-.069.237.988.988,0,0,0-.05.3.165.165,0,0,0,.3.081,1.283,1.283,0,0,1,.868-.632c.178-.035.412-.053.483.151a.789.789,0,0,1-.14.592c-.095.183.186.345.282.161" transform="translate(-6.873 -9.465)" fill="#4e2a0f"></path><path id="Path_39" data-name="Path 39" d="M125.043,131.412a1.018,1.018,0,1,0-2-.028l.315-.084c-.213-.594-.653-1.241-1.385-1.131a1.231,1.231,0,0,0-.991,1.444l.314-.085a2.276,2.276,0,0,0-.582-.952,1.62,1.62,0,0,0-1.069-.364,1.056,1.056,0,0,0-.955.563.822.822,0,0,0,.168.978c.159.134.391-.092.232-.226a.521.521,0,0,1-.072-.678.829.829,0,0,1,.836-.306,1.239,1.239,0,0,1,.708.332,2.167,2.167,0,0,1,.419.739.163.163,0,0,0,.314-.085.909.909,0,0,1,.764-1.049c.533-.055.833.487.983.905a.163.163,0,0,0,.315-.084.693.693,0,1,1,1.366.027c-.041.2.274.287.315.085" transform="translate(-6.424 -9.446)" fill="#4e2a0f"></path><path id="Path_40" data-name="Path 40" d="M128.508,128.541c.062-.415.372-.779.283-1.216a.779.779,0,0,0-.8-.569c-.916-.007-1.456.852-1.808,1.559l.3.123a1.258,1.258,0,0,0-.927-1.661,1.1,1.1,0,0,0-.946.36,1.6,1.6,0,0,0-.377,1.082.163.163,0,0,0,.326,0c.006-.514.308-1.22.953-1.127a.942.942,0,0,1,.655,1.26c-.048.171.216.29.3.123.286-.572.662-1.27,1.371-1.387.3-.049.649.056.649.4s-.236.635-.287.967c-.03.2.285.288.315.085" transform="translate(-6.728 -9.199)" fill="#4e2a0f"></path><path id="Path_41" data-name="Path 41" d="M114.486,127.948a1.345,1.345,0,0,1,.506-.369.956.956,0,0,1,1.127.191,1.127,1.127,0,0,1,.183.408c.047.18.069.368.1.543l-.143.019a1.678,1.678,0,0,1,.038-.562,1.483,1.483,0,0,1,.139-.357,1.58,1.58,0,0,1,.628-.6.748.748,0,0,1,.791.024.972.972,0,0,1,.391.717,4.648,4.648,0,0,1,.034.531h-.146a2.689,2.689,0,0,1,.112-.531,1.407,1.407,0,0,1,.242-.45,1.076,1.076,0,0,1,.6-.358,1.378,1.378,0,0,1,.746.015.738.738,0,0,1,.315.168.818.818,0,0,1,.17.351,3.084,3.084,0,0,1,.07.779.073.073,0,0,1-.146,0,2.729,2.729,0,0,0-.078-.788.528.528,0,0,0-.164-.281.987.987,0,0,0-.3-.121,1.02,1.02,0,0,0-.325-.017,1.417,1.417,0,0,0-.324.052,1.256,1.256,0,0,0-.772,1.182.073.073,0,0,1-.146,0,2.783,2.783,0,0,0-.086-.756.688.688,0,0,0-.309-.4.647.647,0,0,0-.722.076,1.405,1.405,0,0,0-.51.591,1.509,1.509,0,0,0-.1.736c.009.081-.127.1-.143.019-.039-.19-.063-.384-.115-.571a.779.779,0,0,0-.264-.448.867.867,0,0,0-.731-.069,1.19,1.19,0,0,0-.592.407.074.074,0,0,1-.052.03Z" transform="translate(-6.201 -9.225)" fill="#4e2a0f"></path><path id="Path_42" data-name="Path 42" d="M132.417,126.36a1,1,0,0,0-.56-1.577,1.2,1.2,0,0,0-.989.167,2.7,2.7,0,0,0-.605.872l.283.162a1.8,1.8,0,0,0,.281-1.059.769.769,0,0,0-.65-.652,1.106,1.106,0,0,0-.889.269,4.366,4.366,0,0,0-.6.925l.3.123a2.4,2.4,0,0,0,.291-1.046.734.734,0,0,0-.8-.6,1.675,1.675,0,0,0-1.044.374,1.807,1.807,0,0,0-.509.959c-.046.2.268.287.315.085a1.618,1.618,0,0,1,.337-.729,1.258,1.258,0,0,1,.8-.364.687.687,0,0,1,.417.065.362.362,0,0,1,.159.385,3.569,3.569,0,0,1-.281.79c-.062.179.2.268.3.123.278-.409.433-1.032,1.039-1.048a.466.466,0,0,1,.5.409,1.515,1.515,0,0,1-.245.833.163.163,0,0,0,.283.162,4.694,4.694,0,0,1,.392-.66.8.8,0,0,1,.694-.257.744.744,0,0,1,.6.377.648.648,0,0,1-.047.689c-.129.16.1.388.231.226" transform="translate(-6.874 -8.995)" fill="#4e2a0f"></path><path id="Path_43" data-name="Path 43" d="M123.388,125.267c.164-.646.3-1.847-.637-1.974a1.067,1.067,0,0,0-1.039.543,1.95,1.95,0,0,0-.215.622,3.061,3.061,0,0,0-.1.751h.326a3.847,3.847,0,0,0-.061-1.383.724.724,0,0,0-.9-.45,1.553,1.553,0,0,0-.884.613,2,2,0,0,0-.273,1.106c-.006.206.322.206.326,0a1.779,1.779,0,0,1,.182-.87,1.2,1.2,0,0,1,.653-.516.542.542,0,0,1,.372-.029.61.61,0,0,1,.27.412,7.855,7.855,0,0,1-.012,1.116c.011.2.334.207.326,0a2.166,2.166,0,0,1,.067-.556,2.834,2.834,0,0,1,.133-.514.783.783,0,0,1,.79-.53c.678.1.473,1.138.362,1.573a.163.163,0,0,0,.315.085" transform="translate(-6.478 -8.947)" fill="#4e2a0f"></path><path id="Path_44" data-name="Path 44" d="M115.059,124.18a1.125,1.125,0,0,1,.223-.1.813.813,0,0,1,.443.67q.008.06.02.12c0-.01,0-.021,0-.032a2.032,2.032,0,0,1,.087-.578.588.588,0,0,1,.557-.42.851.851,0,0,1,.725.454,2.046,2.046,0,0,1,.17,1.034.073.073,0,0,1-.146,0,1.7,1.7,0,0,0-.208-1.052.631.631,0,0,0-.7-.26c-.229.086-.275.319-.31.531a2.823,2.823,0,0,0-.029.409,5.494,5.494,0,0,1-.071.7c-.012.083-.142.058-.143-.019a5.523,5.523,0,0,0-.08-.791c-.047-.3-.153-.662-.524-.667h-.011" transform="translate(-6.232 -8.987)" fill="#4e2a0f"></path><path id="Path_45" data-name="Path 45" d="M74.536,46.291a30.375,30.375,0,0,1-4.688.549,83.834,83.834,0,0,0,9.322-11.989c.218-.363,1.614-2.7,1.245-2.868-.585-.269-5.212,5.105-11.363,10.933-4.363,4.133-5.435,4.649-6.061,4.9a6.953,6.953,0,0,0-1.372.7c-.077-1.762-.163-3.817-.259-6.226-.746-18.656-.76-24.733-1.259-24.75-.68-.024-2.014,11.116-2.593,23.157-.246-.184-.476-.337-.627-.435-.564-.367-1.514-1.078-4.981-5.958-4.889-6.882-8.37-13.031-9-12.878-.394.1.515,2.652.657,3.048,1.764,4.913,5.066,10.821,8.4,16.166a3.053,3.053,0,0,0-.742-.212c-2.013-1.155-3.636-2.144-4.768-2.849-1.607-1-3-1.808-5.772-3.457-1.189-.709-2.3-1.356-2.451-1.224-.171.147.952,1.191,1.126,1.352,3.692,3.409,10.367,7.139,14.279,9.207,0-.028,0-.094,0-.174,1.257,1.948,2.475,3.763,3.584,5.382-.133,4.62-.248,9.994-.343,15.4a48.1,48.1,0,0,1-7.992-4.848c-.587-.443-1.468-1.139-2.489-2.074-5.912-6-13.8-13.139-14.405-12.662-.329.262,1.411,2.881,1.672,3.238,5.265,7.2,15.4,15.806,23.123,21.9-.061,3.968-.113,7.814-.155,11.247-.028.176-.056.363-.081.573l.074.072c0,.019,0,.039,0,.058h-.073l.069.336c-.087,7.266-.129,12.425-.129,12.425l.045,23.024-.118.7c.044,0,.083.061.12.158l.013,6.613v.006a1.554,1.554,0,0,0,.932.39h.8l7.574-.13,3.456.13c.531,0,.8-.3.8-.911v-1.433a5.389,5.389,0,0,0-.4-2.607l-.132.131h-.131v-.131l.131-.13-.4-.131-1.463.131a3.365,3.365,0,0,1-1.461-.262l-3.588.262a3.135,3.135,0,0,1-.381-.222L62.3,95.611,62.23,62.127c.007-2.53-.043-2.016-.3-7.034,1.461-1.447,3.051-3.056,4.68-4.765,5.366-1.042,12.343-2.658,16.944-4.768.269-.123,2-.924,1.858-1.162-.227-.378-5.023.92-10.873,1.892" transform="translate(-1.73 -1.273)" fill="#a8a94c"></path><path id="Path_46" data-name="Path 46" d="M58.761,95.152v.131l.133.39.532-.13-.133-.131v-.13l-.132.13h-.266v-.261Z" transform="translate(-3.183 -6.906)" fill="#fff"></path><path id="Path_47" data-name="Path 47" d="M58.761,96.979v.131l.133.13-.133.131h.133l.132-.131v-.13l-.132-.131Z" transform="translate(-3.183 -7.038)" fill="#fff"></path><path id="Path_48" data-name="Path 48" d="M59.605,96.135l.131.652H60c-.111-.435-.244-.652-.4-.652" transform="translate(-3.228 -6.977)" fill="#fff"></path><path id="Path_49" data-name="Path 49" d="M61.564,127.184l-.133.131v.13l.531-.13v-.131Z" transform="translate(-3.327 -9.23)" fill="#fff"></path><path id="Path_50" data-name="Path 50" d="M61.431,127.736v.131l.663.13v-.391Z" transform="translate(-3.327 -9.261)" fill="#fff"></path></g></svg> 